# xmcd
#
# Track frame offsets: 
#        150
#        17882
#        33920
#        51080
#        64784
#        95084
#        108352
#        125570
#        140736
#        155318
#        179474
#
# Disc length: 2661 seconds
#
# Revision: 2
# Processed by: cddbd v1.5.2PL0 Copyright (c) Steve Scherf et al.
# Submitted via: ExactAudioCopy v0.99pb5
#
DISCID=980a630b
DTITLE=Various Artist - Visions - All Areas Volume 120
DYEAR=2010
DGENRE=Alternative
TTITLE0=Black Mountain - The Hair Song
TTITLE1=Les Savy Fav - Let's Get Out Of Here
TTITLE2=Filter - Drug Boy
TTITLE3=Jingo De Lunch - Metherfor
TTITLE4=Sufjan Stevens - Too Much
TTITLE5=Carl Barat - Run With The Boys
TTITLE6=No Age - Fever Dreaming
TTITLE7=Paul Smith - Our Lady Lourdes
TTITLE8=Helmet - So Long
TTITLE9=Heirs - Burrows
TTITLE10=Pure Reason Revolution - Fight Fire
EXTD=
EXTT0=
EXTT1=
EXTT2=
EXTT3=
EXTT4=
EXTT5=
EXTT6=
EXTT7=
EXTT8=
EXTT9=
EXTT10=
PLAYORDER=
